<?xml version="1.0" encoding="UTF-8" standalone="yes"?>
<svg xmlns="http://www.w3.org/2000/svg" viewBox="0 0 24 24" width="24" height="24" fill="#000000">
  <path d="M 14.119141 1.9980469 L 9.8769531 2.0019531 C 9.3179531 2.0019531 8.7832969 2.2364375 8.4042969 2.6484375 L 7.1640625 4 L 4 4 C 2.9 4 2 4.9 2 6 L 2 18 C 2 19.1 2.9 20 4 20 L 20 20 C 21.1 20 22 19.1 22 18 L 22 6 C 22 4.9 21.1 4 20 4 L 16.841797 4 L 15.59375 2.6445312 C 15.21475 2.2325313 14.679141 1.9980469 14.119141 1.9980469 z M 12 7 C 14.8 7 17 9.2 17 12 C 17 14.8 14.8 17 12 17 C 9.2 17 7 14.8 7 12 C 7 9.2 9.2 7 12 7 z M 12 9 A 3 3 0 0 0 9 12 A 3 3 0 0 0 12 15 A 3 3 0 0 0 15 12 A 3 3 0 0 0 12 9 z"/>
</svg>
