<svg width="535" height="215" viewBox="0 0 535 215" fill="none" xmlns="http://www.w3.org/2000/svg">
<path fill-rule="evenodd" clip-rule="evenodd" d="M327.3 156.5C327.3 170.5 317.1 182.2 303.7 184.4C311 177.3 315.5 167.4 315.5 156.5H303.8V119H327.3V156.5Z" fill="#87A571"/>
<path d="M327.2 80H303.7V103.5H327.2V80Z" fill="#87A571"/>
<path fill-rule="evenodd" clip-rule="evenodd" d="M6.3 71.9V86.9H26.6V71.9H6.3ZM6 94.1C6.6 98.6 6.8 102.7 6.8 109.2V140C6.8 146.4 6.6 150.2 6 155.1H26.9C26.4 150.8 26.1 145.4 26.1 140V109.2C26.1 102.2 26.3 98.2 26.9 94.1H6ZM118.5 155.1C117.2 152.3 115.6 148.2 113.7 142.9L92 82.7C90 77.4 89.3 74.8 88.6 71.9H62.5C62 74.8 61.1 77.8 59.3 82.7L37.7 142.9C35.3 149.7 34.4 152.1 32.9 155.1H56.3C56.8 151.4 57.5 148.3 58.8 144.3L61.5 135.8H90L92.7 144.3C93.7 147.7 94.3 150.3 95.1 155.1H118.5ZM85.1 119H66.3L75.6 89L85.1 119ZM145.1 155.1C144.5 150.2 144.3 146.3 144.3 140V119.8C147.1 113 151.7 109.1 157.1 109.1C159.5 109.1 161.5 110 162.6 111.6C163.9 113.3 164.3 115.2 164.3 119.4V140C164.3 146.4 164.1 150.6 163.5 155.1H184.3C183.7 150.3 183.5 146.1 183.5 140.1V119.7C186 113 190.6 109 195.7 109C201.4 109 203.6 111.9 203.6 119.4V140C203.6 146.8 203.4 150.4 202.8 155.1H223.6C223 150.4 222.8 146.3 222.8 140.1V115.3C222.8 100.2 215.5 92.4 201.2 92.4C192.5 92.4 186.4 95 180.2 101.1C178.9 98.6 177.9 97.4 176.1 96.1C172.8 93.7 168.5 92.5 163.3 92.5C155.4 92.5 149.3 95.1 144.2 100.7V100.2V99.7C144.3 98.7 144.3 98.7 144.3 98.3V94.1H124.5C125.1 98 125.3 101.6 125.3 109.2V140C125.3 146.3 125.1 150.5 124.5 155.1H145.1ZM280.1 155.1C288.1 155.1 293 155.3 296.7 155.8V136.6C292 137.2 288.6 137.3 280.1 137.3H255.9V87.7C255.9 79.9 256 77.1 256.7 71.9H234.9C235.5 76.7 235.7 81 235.7 88V140.8C235.7 147.5 235.5 151.9 234.9 155.4C238.7 155.2 242.8 155.1 249.7 155.1H280.1ZM396.7 130.2C396.6 129.2 396.6 128.6 396.6 128.2C396.3 122.5 395.9 118.3 395.1 115.1C391.6 100.2 380.7 91.7 365.1 91.7C346 91.7 333.3 104.8 333.3 124.6C333.3 134.5 336.5 143 342.4 149C348.1 154.7 355.8 157.5 365.6 157.5C375.5 157.5 383.5 154.6 389.2 149C392 146.2 393.5 143.9 395.8 138.7L378.4 133.8C377.6 136.4 376.9 137.5 375.4 138.9C372.8 141.3 369.3 142.6 365.3 142.6C357.4 142.6 352.7 138.3 351.7 130.2H396.7ZM352 116.4C353.7 109.8 358 106.6 365.1 106.6C372 106.6 376.3 110 377.7 116.4H352ZM402.4 136.9C403.4 141.7 404.4 144.1 406.4 146.9C411.2 153.5 420.1 156.9 432.7 156.9C443.4 156.9 451.6 154.4 456.4 149.6C459.7 146.4 461.5 141.6 461.5 136.3C461.5 129.1 458.4 124.2 451.9 121C448.4 119.2 445.3 118.3 435.5 116.2C425.6 114 423.5 113 423.5 110.3C423.5 107.7 426.7 106 431.9 106C437.3 106 439.8 107.8 440.3 111.9L459.6 109.8C458 104.2 456.4 101.3 453.1 98.4C448.4 94.1 441.3 92 431.8 92C415.1 92 405 99.3 405 111.3C405 114.7 405.9 118.1 407.5 120.8C409.4 123.8 412.7 126.1 417.5 127.9C420.8 129 424.7 130 432.3 131.5C437.8 132.6 439.1 133 440.5 133.8C441.9 134.6 442.7 135.9 442.7 137.4C442.7 140.5 439.3 142.2 433.3 142.2C426.6 142.2 423.2 139.9 422.2 134.7L402.4 136.9ZM510.2 115.6C503 115.8 500 115.9 496.1 116.3C487.1 117.1 480.4 119.2 475.3 122.8C470.5 126.1 468 131.1 468 137.4C468 142.9 469.9 147.7 473.5 151C477.5 154.7 483.2 156.5 490.8 156.5C499 156.5 504.6 154.8 510.2 150.5V155.1H529.6C529.1 150.6 528.9 147 528.9 140.9V113.9C528.9 104.9 526.1 99.4 519.7 95.9C515.8 93.8 508.6 92.4 501.2 92.4C491.5 92.4 484.1 94.3 478.7 98.1C474.5 101.1 472.3 104.3 470.3 110.2L489.4 113.3C490.9 108.4 494.3 106.3 500.7 106.3C507.3 106.3 510.2 108.5 510.2 113.3V115.6ZM510.2 131.2C510.2 134.2 508.9 136.9 506.6 138.9C503.9 141.2 499.4 142.7 495.3 142.7C490.1 142.7 487.1 140.6 487.1 137C487.1 134.1 489.3 131.6 492.9 130.4C497 129.1 501.3 128.6 510.2 128.4V131.2Z" fill="#333333"/>
</svg>
